<svg width="269" height="60" viewBox="0 0 269 60" fill="none" xmlns="http://www.w3.org/2000/svg">
<path d="M38.0165 7.60399C33.4061 3.68791 28.8383 0.497681 22.9059 0.0235376C18.3966 -0.336461 16.0307 3.39815 13.8976 7.2557C10.3312 13.6991 -1.1119 38.3824 0.218925 47.2228C3.07237 66.149 38.6035 60.7344 51.6483 52.115C61.7532 45.4389 56.3333 23.1659 38.0165 7.60399ZM49.931 40.2628C49.8592 41.0575 49.7465 41.8419 49.5928 42.6058C48.4274 48.3672 43.3881 51.3072 38.3986 52.7428C33.6594 54.1067 28.8412 55.1808 23.9688 55.8496C19.9339 56.4042 15.8653 56.2769 11.8377 54.395C2.48089 50.0267 6.30793 38.9282 8.82172 32.8375C12.0866 24.9263 14.7453 16.9244 18.5884 8.82593C19.8871 6.09082 23.3408 3.96742 26.6202 5.21717C30.3931 6.6557 33.8307 9.11715 36.6241 12.0645C40.5083 16.1649 43.9561 20.0605 46.4772 25.2307C48.5167 29.4146 50.3731 35.3999 49.931 40.2628ZM43.574 31.5965C42.3881 28.5395 36.141 14.5888 28.9964 10.4971C24.2455 7.7752 21.2472 14.2581 20.0598 16.8834C17.975 21.502 16.0805 26.2127 14.0748 30.8722C12.1188 35.419 10.3253 40.9843 11.4878 46.1648C12.2915 49.7413 15.7218 51.6042 18.8329 51.8369C23.3613 52.1779 35.6857 49.1779 37.8071 48.2135C42.7951 45.9496 44.2314 43.2248 45.0132 40.1106C45.6618 37.5321 44.5827 34.1926 43.574 31.5965ZM32.0548 45.7755C29.3536 46.6989 22.048 48.3599 17.4406 46.9272C13.5623 45.7213 15.4978 38.8463 16.489 35.9604C17.8359 32.0326 24.0142 17.1469 25.1694 16.042C28.0492 13.2864 31.2467 18.0191 33.289 20.962C47.4216 39.4272 36.0839 44.397 32.0548 45.7755ZM83.9336 43.5175H79.1842L77.7041 38.9721H77.6763C77.4245 39.8809 76.4186 40.2497 74.9941 40.2497H70.8582L69.8245 43.516H65.2142L71.7805 23.6312H77.3688L83.9336 43.5175ZM72.1992 35.9897H76.7525L74.489 28.7458H74.4612L72.1992 35.9897ZM99.2916 43.5175H94.8204V35.2785C94.8204 33.8575 93.9815 33.0058 92.7253 33.0058C91.049 33.0058 90.3506 34.2834 90.3506 36.4155V43.5175H85.8808V29.3136H90.3506V31.0185H90.3784C91.3286 29.7395 92.7253 29.0297 94.4016 29.0297C97.6138 29.0297 99.2916 31.0185 99.2916 34.6829V43.5175ZM112.562 29.3136H117.032V42.0965C117.032 46.3579 114.098 49.4823 109.209 49.4823C106.136 49.4823 104.04 48.6306 102.504 47.4935L104.88 44.5111C105.662 44.994 106.975 45.6482 108.931 45.6482C111.361 45.6482 112.563 44.1979 112.563 42.0965V41.5287H112.535C111.724 42.8062 110.189 43.5175 108.233 43.5175C104.041 43.5175 101.527 40.3931 101.527 36.2736C101.527 32.1541 104.041 29.0297 108.233 29.0297C110.189 29.0297 111.724 29.7395 112.535 31.0185H112.563V29.3136H112.562ZM112.562 36.2736C112.562 34.3141 111.221 33.0073 109.35 33.0073C107.477 33.0073 106.136 34.3141 106.136 36.2736C106.136 38.2346 107.477 39.5399 109.35 39.5399C111.221 39.5399 112.562 38.2331 112.562 36.2736ZM124.422 43.5175H119.952V23.6327H124.422V43.5175ZM126.656 36.4155C126.656 32.1541 129.729 29.0297 134.201 29.0297C138.67 29.0297 141.745 32.1541 141.745 36.4155C141.745 40.677 138.672 43.8014 134.201 43.8014C129.731 43.8014 126.656 40.677 126.656 36.4155ZM137.135 36.4155C137.135 34.456 136.073 33.0058 134.201 33.0058C132.328 33.0058 131.267 34.4546 131.267 36.4155C131.267 38.3765 132.328 39.8238 134.201 39.8238C136.073 39.8238 137.135 38.3765 137.135 36.4155ZM161.302 43.5175H156.552L155.071 38.9721H155.043C154.791 39.8809 153.785 40.2497 152.361 40.2497H148.226L147.193 43.516H142.582L149.149 23.6312H154.735L161.302 43.5175ZM149.567 35.9897H154.12L151.857 28.7458H151.829L149.567 35.9897ZM185.052 34.6829V43.5175H180.58V35.2785C180.58 33.8575 179.741 33.0058 178.765 33.0058C177.089 33.0058 176.39 34.2834 176.39 36.4155V43.5175H171.92V35.2785C171.92 33.8575 171.082 33.0058 170.104 33.0058C168.427 33.0058 167.729 34.2834 167.729 36.4155V43.5175H163.259V29.3136H167.729V31.0185H167.757C168.566 29.7395 169.963 29.0297 171.639 29.0297C173.623 29.0297 175.02 29.8536 175.774 31.4443H175.83C176.668 30.1668 177.926 29.0297 180.16 29.0297C183.514 29.0297 185.052 31.0185 185.052 34.6829ZM201.9 37.9785H192.094C192.512 39.3424 193.574 40.1092 195.111 40.1092C196.508 40.1092 197.402 39.455 197.905 38.6882L201.257 40.9609C200 42.5223 198.044 43.8014 194.972 43.8014C190.362 43.8014 187.289 40.677 187.289 36.4155C187.289 32.1541 190.362 29.0297 194.831 29.0297C199.023 29.0297 201.956 31.8702 201.956 36.6424C201.956 37.0682 201.956 37.5233 201.9 37.9785ZM197.486 35.138C197.347 33.717 196.647 32.7234 194.831 32.7234C193.378 32.7234 192.401 33.6043 192.038 35.138H197.486ZM212.853 33.5751C209.081 33.5751 208.661 34.4268 208.661 36.9833V43.5175H204.191V29.3136H208.661V31.5863H208.69C209.5 29.8814 210.617 29.0297 212.853 29.0297V33.5751ZM214.249 25.3375C214.249 23.9166 215.366 22.781 216.765 22.781C218.161 22.781 219.28 23.918 219.28 25.3375C219.28 26.7585 218.161 27.8941 216.765 27.8941C215.368 27.8927 214.249 26.7571 214.249 25.3375ZM219 43.5175H214.529V29.3136H219V43.5175ZM231.572 38.1204L235.204 40.2789C233.835 42.4667 231.572 43.8014 228.638 43.8014C224.307 43.8014 221.234 40.677 221.234 36.4155C221.234 32.1541 224.307 29.0297 228.777 29.0297C231.571 29.0297 233.834 30.3644 235.203 32.5521L231.571 34.7107C230.872 33.518 229.95 33.0058 228.777 33.0058C226.906 33.0058 225.843 34.4546 225.843 36.4155C225.843 38.3765 226.905 39.8238 228.777 39.8238C229.951 39.8238 230.874 39.3131 231.572 38.1204ZM247.359 31.0185V29.3136H251.829V43.5175H247.359V41.8126H247.331C246.521 43.0901 244.984 43.8014 243.028 43.8014C238.837 43.8014 236.323 40.677 236.323 36.4155C236.323 32.1541 238.838 29.0297 243.028 29.0297C244.984 29.0297 246.521 29.7395 247.331 31.0185H247.359ZM247.359 36.4155C247.359 34.3141 246.018 33.0058 244.147 33.0058C242.274 33.0058 240.933 34.3126 240.933 36.4155C240.933 38.5185 242.274 39.8238 244.147 39.8238C246.018 39.8238 247.359 38.517 247.359 36.4155ZM268.034 43.5175H263.563V35.2785C263.563 33.8575 262.726 33.0058 261.468 33.0058C259.792 33.0058 259.093 34.2834 259.093 36.4155V43.5175H254.624V29.3136H259.093V31.0185H259.123C260.071 29.7395 261.469 29.0297 263.146 29.0297C266.359 29.0297 268.036 31.0185 268.036 34.6829V43.5175H268.034Z" fill="white"/>
<path d="M35.7457 33.1083C34.5525 30.4756 32.5335 27.003 29.9158 24.6205C28.9056 23.7044 26.0053 22.6259 25.1195 25.0844C23.5208 29.3693 22.2705 33.799 21.0773 38.0839C20.7479 39.2663 20.2106 42.2356 21.4506 43.0214C24.2938 44.8258 32.3432 39.4785 34.8321 37.8688C36.2522 36.9556 36.4352 34.6302 35.7457 33.1083ZM31.9596 35.58C30.1705 37.1897 27.2014 39.1814 25.1371 39.098C23.0113 39.0131 25.9965 29.5786 27.727 28.1444C29.1252 26.9854 32.1704 32.3151 32.3505 32.8771C32.6448 33.7961 32.6082 34.9946 31.9596 35.58Z" fill="white"/>
</svg>
