<?xml version="1.0" encoding="UTF-8" standalone="no"?>
<!DOCTYPE svg PUBLIC "-//W3C//DTD SVG 1.1//EN" "http://www.w3.org/Graphics/SVG/1.1/DTD/svg11.dtd">
<svg width="100%" height="100%" viewBox="0 0 27 25" version="1.1" xmlns="http://www.w3.org/2000/svg" xmlns:xlink="http://www.w3.org/1999/xlink" xml:space="preserve" xmlns:serif="http://www.serif.com/" style="fill-rule:evenodd;clip-rule:evenodd;stroke-linejoin:round;stroke-miterlimit:2;">
    <g transform="matrix(1,0,0,1,-14.1665,-15.125)">
        <path d="M39.833,27.5L39.833,26.488C39.833,25.813 39.367,25.363 38.667,25.363C37.967,25.363 37.5,25.813 37.5,26.488L37.5,27.5C37.5,33.125 32.833,37.625 27,37.625C21.167,37.625 16.5,33.125 16.5,27.5C16.5,21.875 21.167,17.375 27,17.375C28.517,17.375 29.917,17.713 31.317,18.275C31.9,18.5 32.6,18.275 32.833,17.713C33.067,17.15 32.833,16.475 32.25,16.25C30.616,15.463 28.75,15.125 27,15.125C19.883,15.125 14.166,20.638 14.166,27.5C14.166,34.363 19.883,39.875 27,39.875C34.117,39.875 39.833,34.363 39.833,27.5ZM39.017,16.588C39.483,16.137 40.183,16.137 40.65,16.588C41.117,17.038 41.117,17.713 40.65,18.163L27.817,30.538C27.583,30.763 27.233,30.875 27,30.875C26.767,30.875 26.417,30.763 26.183,30.538L22.683,27.163C22.217,26.712 22.217,26.038 22.683,25.587C23.15,25.138 23.85,25.138 24.317,25.587L27,28.175L39.017,16.588Z" style="fill:white;"/>
    </g>
</svg>
